<svg width="24" height="24" viewBox="0 0 24 24" fill="none" xmlns="http://www.w3.org/2000/svg">
<g clip-path="url(#clip0_2_1955)">
<mask id="mask0_2_1955" style="mask-type:alpha" maskUnits="userSpaceOnUse" x="-5" y="-2" width="14" height="27">
<path fill-rule="evenodd" clip-rule="evenodd" d="M7.61808 4.80904C7.61808 8.01728 5.01728 10.6181 1.80904 10.6181C-1.3992 10.6181 -4 8.01728 -4 4.80904C-4 1.6008 -1.3992 -1 1.80904 -1C5.01728 -1 7.61808 1.6008 7.61808 4.80904ZM3.64344 11.3681C6.51294 10.5673 8.61808 7.934 8.61808 4.80904C8.61808 1.04851 5.56957 -2 1.80904 -2C-1.95149 -2 -5 1.04851 -5 4.80904C-5 7.934 -2.89487 10.5673 -0.0253649 11.3681C-2.89487 12.169 -5 14.8022 -5 17.9272C-5 21.6877 -1.95149 24.7362 1.80904 24.7362C5.56957 24.7362 8.61808 21.6877 8.61808 17.9272C8.61808 14.8022 6.51294 12.169 3.64344 11.3681ZM7.61808 17.9272C7.61808 21.1354 5.01728 23.7362 1.80904 23.7362C-1.3992 23.7362 -4 21.1354 -4 17.9272C-4 14.719 -1.3992 12.1182 1.80904 12.1182C5.01728 12.1182 7.61808 14.719 7.61808 17.9272Z" fill="black"/>
</mask>
<g mask="url(#mask0_2_1955)">
<circle cx="7.98819" cy="11.6181" r="6.21866" fill="#868687"/>
</g>
<line x1="2" y1="11.5786" x2="22" y2="11.5786" stroke="#868687"/>
</g>
<defs>
<clipPath id="clip0_2_1955">
<rect width="24" height="24" fill="white"/>
</clipPath>
</defs>
</svg>
