<svg width="16" height="18" viewBox="0 0 16 18" fill="none" xmlns="http://www.w3.org/2000/svg">
<path fill-rule="evenodd" clip-rule="evenodd" d="M10.2152 5.28816C14.844 0.137871 19.3612 7.75604 12.4459 8.98995C19.3612 10.2775 14.7882 17.842 10.2152 12.6917C12.5574 19.1295 3.46713 19.0759 5.80944 12.6917C1.1806 17.842 -3.33667 10.2775 3.57866 8.98995C-3.39244 7.75604 1.1806 0.191518 5.80944 5.28816C3.41136 -1.09605 12.5574 -1.09605 10.2152 5.28816ZM7.98438 8.02427C8.54212 8.02427 9.044 8.45347 9.044 8.98995C9.044 9.52642 8.54212 10.0093 7.98438 10.0093C7.42672 10.0093 6.98053 9.52642 6.98053 8.98995C6.98053 8.45347 7.42672 8.02427 7.98438 8.02427Z" fill="#EB5757"/>
</svg>
