<svg width="52" height="54" viewBox="0 0 52 54" fill="none" xmlns="http://www.w3.org/2000/svg">
<path d="M23.5244 1.61684C24.7158 -0.123841 27.2842 -0.123843 28.4756 1.61683L31.0842 5.42787C31.8535 6.55187 33.2835 7.01651 34.5666 6.55938L38.917 5.00946C40.9041 4.30153 42.9819 5.81117 42.9227 7.91972L42.793 12.5362C42.7547 13.8977 43.6385 15.1142 44.9452 15.4985L49.3758 16.8017C51.3995 17.3969 52.1931 19.8396 50.9058 21.5106L48.0874 25.1692C47.2562 26.2482 47.2562 27.7518 48.0874 28.8308L50.9058 32.4894C52.1931 34.1604 51.3995 36.6031 49.3758 37.1983L44.9452 38.5015C43.6385 38.8858 42.7547 40.1023 42.793 41.4638L42.9227 46.0803C42.9819 48.1888 40.9041 49.6985 38.917 48.9905L34.5666 47.4406C33.2835 46.9835 31.8535 47.4481 31.0842 48.5721L28.4756 52.3832C27.2842 54.1238 24.7158 54.1238 23.5244 52.3832L20.9158 48.5721C20.1465 47.4481 18.7165 46.9835 17.4334 47.4406L13.083 48.9905C11.0959 49.6985 9.01808 48.1888 9.07733 46.0803L9.20704 41.4638C9.2453 40.1023 8.3615 38.8858 7.05478 38.5015L2.62419 37.1983C0.600526 36.6031 -0.19314 34.1604 1.09417 32.4894L3.91259 28.8308C4.74383 27.7518 4.74383 26.2482 3.91259 25.1692L1.09417 21.5106C-0.193139 19.8396 0.600525 17.3969 2.62418 16.8017L7.05478 15.4985C8.3615 15.1142 9.2453 13.8977 9.20704 12.5362L9.07733 7.91972C9.01808 5.81117 11.0959 4.30153 13.083 5.00946L17.4334 6.55938C18.7165 7.01651 20.1465 6.55187 20.9158 5.42787L23.5244 1.61684Z" fill="#F2E35C"/>
</svg>
